<mxfile host="app.diagrams.net" modified="2023-12-22T18:50:11.637Z" agent="Mozilla/5.0 (Windows NT 10.0; Win64; x64) AppleWebKit/537.36 (KHTML, like Gecko) Chrome/120.0.0.0 Safari/537.36" etag="GR5-wLIHeByy8oryykFR" version="22.1.11" type="github">
  <diagram name="Page-1" id="H_HYPL7_jape2dJSsAsg">
    <mxGraphModel dx="934" dy="485" grid="1" gridSize="10" guides="1" tooltips="1" connect="1" arrows="1" fold="1" page="1" pageScale="1" pageWidth="850" pageHeight="1100" math="0" shadow="0">
      <root>
        <mxCell id="0" />
        <mxCell id="1" parent="0" />
        <mxCell id="vRBFzoqCjKqkrlldyz-9-1" value="AWS Cloud" style="points=[[0,0],[0.25,0],[0.5,0],[0.75,0],[1,0],[1,0.25],[1,0.5],[1,0.75],[1,1],[0.75,1],[0.5,1],[0.25,1],[0,1],[0,0.75],[0,0.5],[0,0.25]];outlineConnect=0;gradientColor=none;html=1;whiteSpace=wrap;fontSize=12;fontStyle=0;container=1;pointerEvents=0;collapsible=0;recursiveResize=0;shape=mxgraph.aws4.group;grIcon=mxgraph.aws4.group_aws_cloud_alt;strokeColor=#232F3E;fillColor=none;verticalAlign=top;align=left;spacingLeft=30;fontColor=#232F3E;dashed=0;" vertex="1" parent="1">
          <mxGeometry x="240" y="80" width="560" height="389" as="geometry" />
        </mxCell>
        <mxCell id="vRBFzoqCjKqkrlldyz-9-5" value="&lt;font style=&quot;font-size: 12px;&quot;&gt;Amazon S3&lt;/font&gt;" style="sketch=0;outlineConnect=0;fontColor=#232F3E;gradientColor=none;strokeColor=#ffffff;fillColor=#232F3E;dashed=0;verticalLabelPosition=middle;verticalAlign=bottom;align=center;html=1;whiteSpace=wrap;fontSize=10;fontStyle=1;spacing=3;shape=mxgraph.aws4.productIcon;prIcon=mxgraph.aws4.s3;" vertex="1" parent="vRBFzoqCjKqkrlldyz-9-1">
          <mxGeometry x="430" y="201" width="80" height="100" as="geometry" />
        </mxCell>
        <mxCell id="vRBFzoqCjKqkrlldyz-9-13" value="&lt;font style=&quot;font-size: 12px;&quot;&gt;AWS Certificate Manager&lt;/font&gt;" style="sketch=0;outlineConnect=0;fontColor=#232F3E;gradientColor=none;strokeColor=#ffffff;fillColor=#232F3E;dashed=0;verticalLabelPosition=middle;verticalAlign=bottom;align=center;html=1;whiteSpace=wrap;fontSize=10;fontStyle=1;spacing=3;shape=mxgraph.aws4.productIcon;prIcon=mxgraph.aws4.certificate_manager_3;" vertex="1" parent="vRBFzoqCjKqkrlldyz-9-1">
          <mxGeometry x="241.75" y="20" width="98.25" height="140" as="geometry" />
        </mxCell>
        <mxCell id="vRBFzoqCjKqkrlldyz-9-27" style="edgeStyle=orthogonalEdgeStyle;rounded=0;orthogonalLoop=1;jettySize=auto;html=1;entryX=0.5;entryY=0;entryDx=0;entryDy=0;entryPerimeter=0;" edge="1" parent="vRBFzoqCjKqkrlldyz-9-1" source="vRBFzoqCjKqkrlldyz-9-13" target="vRBFzoqCjKqkrlldyz-9-21">
          <mxGeometry relative="1" as="geometry" />
        </mxCell>
        <mxCell id="vRBFzoqCjKqkrlldyz-9-29" value="" style="group" vertex="1" connectable="0" parent="vRBFzoqCjKqkrlldyz-9-1">
          <mxGeometry x="90" y="207" width="70.5" height="114.5" as="geometry" />
        </mxCell>
        <mxCell id="vRBFzoqCjKqkrlldyz-9-21" value="" style="outlineConnect=0;dashed=0;verticalLabelPosition=bottom;verticalAlign=top;align=center;html=1;shape=mxgraph.aws3.route_53;fillColor=#F58536;gradientColor=none;" vertex="1" parent="vRBFzoqCjKqkrlldyz-9-29">
          <mxGeometry width="70.5" height="85.5" as="geometry" />
        </mxCell>
        <mxCell id="vRBFzoqCjKqkrlldyz-9-23" value="&lt;b style=&quot;background-color: rgb(255, 255, 255);&quot;&gt;&lt;font style=&quot;font-size: 12px;&quot;&gt;Route 53&lt;/font&gt;&lt;/b&gt;" style="text;html=1;align=center;verticalAlign=middle;resizable=0;points=[];autosize=1;strokeColor=none;fillColor=none;" vertex="1" parent="vRBFzoqCjKqkrlldyz-9-29">
          <mxGeometry y="84.5" width="70" height="30" as="geometry" />
        </mxCell>
        <mxCell id="vRBFzoqCjKqkrlldyz-9-25" value="" style="group" vertex="1" connectable="0" parent="vRBFzoqCjKqkrlldyz-9-1">
          <mxGeometry x="245" y="200" width="90" height="129" as="geometry" />
        </mxCell>
        <mxCell id="vRBFzoqCjKqkrlldyz-9-4" value="" style="outlineConnect=0;dashed=0;verticalLabelPosition=bottom;verticalAlign=top;align=center;html=1;shape=mxgraph.aws3.cloudfront;fillColor=#F58536;gradientColor=none;" vertex="1" parent="vRBFzoqCjKqkrlldyz-9-25">
          <mxGeometry x="8.5" width="76.5" height="100.81512605042016" as="geometry" />
        </mxCell>
        <mxCell id="vRBFzoqCjKqkrlldyz-9-24" value="&lt;b style=&quot;&quot;&gt;&lt;font style=&quot;background-color: rgb(255, 255, 255); font-size: 12px;&quot;&gt;CloudFront&lt;/font&gt;&lt;/b&gt;" style="text;html=1;align=center;verticalAlign=middle;resizable=0;points=[];autosize=1;strokeColor=none;fillColor=none;fontSize=10;" vertex="1" parent="vRBFzoqCjKqkrlldyz-9-25">
          <mxGeometry y="96.47899159663865" width="90" height="30" as="geometry" />
        </mxCell>
        <mxCell id="vRBFzoqCjKqkrlldyz-9-28" style="edgeStyle=orthogonalEdgeStyle;rounded=0;orthogonalLoop=1;jettySize=auto;html=1;" edge="1" parent="vRBFzoqCjKqkrlldyz-9-1" source="vRBFzoqCjKqkrlldyz-9-13" target="vRBFzoqCjKqkrlldyz-9-4">
          <mxGeometry relative="1" as="geometry" />
        </mxCell>
        <mxCell id="vRBFzoqCjKqkrlldyz-9-34" value="" style="edgeStyle=orthogonalEdgeStyle;rounded=0;orthogonalLoop=1;jettySize=auto;html=1;" edge="1" parent="vRBFzoqCjKqkrlldyz-9-1" source="vRBFzoqCjKqkrlldyz-9-4" target="vRBFzoqCjKqkrlldyz-9-5">
          <mxGeometry relative="1" as="geometry" />
        </mxCell>
        <mxCell id="vRBFzoqCjKqkrlldyz-9-36" style="edgeStyle=orthogonalEdgeStyle;rounded=0;orthogonalLoop=1;jettySize=auto;html=1;" edge="1" parent="vRBFzoqCjKqkrlldyz-9-1" source="vRBFzoqCjKqkrlldyz-9-21" target="vRBFzoqCjKqkrlldyz-9-4">
          <mxGeometry relative="1" as="geometry" />
        </mxCell>
        <mxCell id="vRBFzoqCjKqkrlldyz-9-2" value="" style="points=[[0.35,0,0],[0.98,0.51,0],[1,0.71,0],[0.67,1,0],[0,0.795,0],[0,0.65,0]];verticalLabelPosition=bottom;sketch=0;html=1;verticalAlign=top;aspect=fixed;align=center;pointerEvents=1;shape=mxgraph.cisco19.user;fillColor=#005073;strokeColor=none;" vertex="1" parent="1">
          <mxGeometry x="110" y="304" width="50" height="50" as="geometry" />
        </mxCell>
        <mxCell id="vRBFzoqCjKqkrlldyz-9-30" style="edgeStyle=orthogonalEdgeStyle;rounded=0;orthogonalLoop=1;jettySize=auto;html=1;entryX=0.29;entryY=0.5;entryDx=0;entryDy=0;entryPerimeter=0;" edge="1" parent="1" source="vRBFzoqCjKqkrlldyz-9-2" target="vRBFzoqCjKqkrlldyz-9-21">
          <mxGeometry relative="1" as="geometry" />
        </mxCell>
        <mxCell id="vRBFzoqCjKqkrlldyz-9-42" style="edgeStyle=orthogonalEdgeStyle;rounded=0;orthogonalLoop=1;jettySize=auto;html=1;entryX=0.503;entryY=1.036;entryDx=0;entryDy=0;entryPerimeter=0;" edge="1" parent="1" source="vRBFzoqCjKqkrlldyz-9-2" target="vRBFzoqCjKqkrlldyz-9-24">
          <mxGeometry relative="1" as="geometry">
            <Array as="points">
              <mxPoint x="135" y="430" />
              <mxPoint x="530" y="430" />
            </Array>
          </mxGeometry>
        </mxCell>
      </root>
    </mxGraphModel>
  </diagram>
</mxfile>
